<svg id="Layer_1" data-name="Layer 1" xmlns="http://www.w3.org/2000/svg" viewBox="0 0 230 47"><defs><style>.cls-1{fill:#282c35;}.cls-2{fill:#d23669;}</style></defs><path class="cls-1" d="M30.73,33.22a8.34,8.34,0,0,1-3.46-.72,8.69,8.69,0,0,1-2.81-2A9.56,9.56,0,0,1,21.9,23.9a9.34,9.34,0,0,1,.71-3.69,9.24,9.24,0,0,1,4.78-4.9,8.41,8.41,0,0,1,7.24.25,9.06,9.06,0,0,1,3.16,2.74l-1.93,1a6.53,6.53,0,0,0-2.34-1.92,6.16,6.16,0,0,0-5.34-.12A6.8,6.8,0,0,0,26,18.84a7.26,7.26,0,0,0-1.45,2.29,7.4,7.4,0,0,0-.53,2.81,7.41,7.41,0,0,0,2,5,6.37,6.37,0,0,0,2.14,1.53,6.2,6.2,0,0,0,2.6.56,5.92,5.92,0,0,0,2.1-.38,6.21,6.21,0,0,0,1.83-1.05A6.88,6.88,0,0,0,36.13,28a7.14,7.14,0,0,0,.9-2H32.61V24.09h6.94a9.1,9.1,0,0,1-.72,3.54,9.36,9.36,0,0,1-1.91,2.91,9,9,0,0,1-2.79,2A8.29,8.29,0,0,1,30.73,33.22Z"/><path class="cls-1" d="M43.1,18a1.2,1.2,0,0,1-.86-.33,1.17,1.17,0,0,1,0-1.67,1.25,1.25,0,0,1,1.69,0,1.18,1.18,0,0,1,0,1.67A1.17,1.17,0,0,1,43.1,18ZM42,20.06h2.15V32.89H42Z"/><path class="cls-1" d="M47.31,32.89V13.65h2.15V32.89Z"/><path class="cls-1" d="M62.73,20.06h2.16V32.89H62.73l-.09-2.17A4.89,4.89,0,0,1,61,32.53a4.49,4.49,0,0,1-2.52.69,6.66,6.66,0,0,1-2.64-.53,7,7,0,0,1-2.17-1.48,6.73,6.73,0,0,1-2-4.83,6.51,6.51,0,0,1,.52-2.59,6.6,6.6,0,0,1,1.43-2.13,6.86,6.86,0,0,1,2.12-1.44,6.58,6.58,0,0,1,2.59-.52,4.93,4.93,0,0,1,2.65.71,5.71,5.71,0,0,1,1.85,1.84Zm-4.3,11.07a3.91,3.91,0,0,0,2.2-.62,4.23,4.23,0,0,0,1.43-1.69,5.69,5.69,0,0,0,0-4.71,4.17,4.17,0,0,0-1.45-1.68,3.79,3.79,0,0,0-2.18-.62,4.44,4.44,0,0,0-2.31.62,4.66,4.66,0,0,0-2.26,4,4.53,4.53,0,0,0,.63,2.36,4.8,4.8,0,0,0,1.67,1.68A4.35,4.35,0,0,0,58.43,31.13Z"/><path class="cls-1" d="M77.52,13.65h2.16V32.89H77.52V30.71a5.17,5.17,0,0,1-1.75,1.82,4.81,4.81,0,0,1-2.6.69,6.51,6.51,0,0,1-2.61-.52,7.06,7.06,0,0,1-2.15-1.46A6.88,6.88,0,0,1,67,29.09a6.52,6.52,0,0,1-.52-2.62A6.59,6.59,0,0,1,67,23.85a6.77,6.77,0,0,1,1.46-2.15,6.88,6.88,0,0,1,2.15-1.46,6.51,6.51,0,0,1,2.61-.53,4.81,4.81,0,0,1,2.6.7,5.17,5.17,0,0,1,1.75,1.82ZM73.2,31.13a3.89,3.89,0,0,0,2.2-.62,4.17,4.17,0,0,0,1.44-1.69,5.5,5.5,0,0,0,.5-2.35,5.34,5.34,0,0,0-.51-2.36,4.08,4.08,0,0,0-1.44-1.68,3.8,3.8,0,0,0-2.19-.62,4.4,4.4,0,0,0-2.3.62,4.77,4.77,0,0,0-1.65,1.69,4.61,4.61,0,0,0-.62,2.35,4.53,4.53,0,0,0,.63,2.36,4.88,4.88,0,0,0,1.67,1.68A4.38,4.38,0,0,0,73.2,31.13Z"/><path class="cls-1" d="M88.91,32.89v-18h6.2a5.29,5.29,0,0,1,2.43.55,4.13,4.13,0,0,1,1.73,1.58,4.62,4.62,0,0,1,.65,2.49,4.24,4.24,0,0,1-.27,1.5,3.66,3.66,0,0,1-.72,1.25,2.19,2.19,0,0,1-1,.7,3.06,3.06,0,0,1,1.37.72,4.09,4.09,0,0,1,.92,1.22,5.38,5.38,0,0,1,.51,1.44,7.64,7.64,0,0,1,.15,1.47,5,5,0,0,1-.67,2.62,4.88,4.88,0,0,1-1.8,1.78,5,5,0,0,1-2.49.64Zm2.16-10.7H94.9a3,3,0,0,0,2-.7,2.39,2.39,0,0,0,.84-1.95,2.46,2.46,0,0,0-.84-2,3.11,3.11,0,0,0-2-.67H91.07Zm0,8.8H95.7a2.93,2.93,0,0,0,1.61-.46,3.33,3.33,0,0,0,1.16-1.25,3.67,3.67,0,0,0,.43-1.79,3.44,3.44,0,0,0-.43-1.68,3.64,3.64,0,0,0-1.16-1.27,2.8,2.8,0,0,0-1.61-.49H91.07Z"/><path class="cls-1" d="M108.51,33.22a6,6,0,0,1-3.23-.91A7,7,0,0,1,104,21.68a6.28,6.28,0,0,1,2-1.45,6.13,6.13,0,0,1,7.23,1.68,6.75,6.75,0,0,1,1.29,2.41,7.88,7.88,0,0,1,.32,2.94H104.39a4.59,4.59,0,0,0,.72,1.94,4.22,4.22,0,0,0,1.44,1.35,4,4,0,0,0,2,.52,3.78,3.78,0,0,0,2.09-.6,4.43,4.43,0,0,0,1.51-1.64l2.2.52A6.78,6.78,0,0,1,112,32.14,5.92,5.92,0,0,1,108.51,33.22Zm-4.18-7.66h8.36a4.28,4.28,0,0,0-.69-2,4.68,4.68,0,0,0-1.5-1.44,3.93,3.93,0,0,0-2-.53,3.85,3.85,0,0,0-2,.52,4.46,4.46,0,0,0-1.48,1.42A4.59,4.59,0,0,0,104.33,25.56Z"/><path class="cls-1" d="M128.38,24.91v8h-2.16V25.38a3.44,3.44,0,0,0-.47-1.77,3.57,3.57,0,0,0-1.27-1.26,3.44,3.44,0,0,0-1.77-.47,3.51,3.51,0,0,0-3,1.73,3.36,3.36,0,0,0-.48,1.77v7.51H117V20.06h2.15v1.6a5.21,5.21,0,0,1,1.72-1.43,5,5,0,0,1,2.26-.53,5.11,5.11,0,0,1,2.62.7,5.32,5.32,0,0,1,1.89,1.88A5.12,5.12,0,0,1,128.38,24.91Z"/><path class="cls-1" d="M137.1,32.89v-18h6.19a5.29,5.29,0,0,1,2.43.55,4.21,4.21,0,0,1,1.74,1.58,4.61,4.61,0,0,1,.64,2.49,4.46,4.46,0,0,1-.26,1.5,4,4,0,0,1-.72,1.25,2.24,2.24,0,0,1-1,.7,3.11,3.11,0,0,1,1.37.72,4.26,4.26,0,0,1,.92,1.22,5.72,5.72,0,0,1,.5,1.44,7,7,0,0,1,.16,1.47,5,5,0,0,1-.68,2.62,4.8,4.8,0,0,1-1.8,1.78,5,5,0,0,1-2.49.64Zm2.15-10.7h3.84a3,3,0,0,0,2-.7,2.39,2.39,0,0,0,.84-1.95,2.46,2.46,0,0,0-.84-2,3.13,3.13,0,0,0-2-.67h-3.84Zm0,8.8h4.63a2.91,2.91,0,0,0,1.61-.46,3.33,3.33,0,0,0,1.16-1.25,3.68,3.68,0,0,0,.44-1.79,3.45,3.45,0,0,0-.44-1.68,3.64,3.64,0,0,0-1.16-1.27,2.78,2.78,0,0,0-1.61-.49h-4.63Z"/><path class="cls-1" d="M161.36,20.06h2.16V32.89h-2.16l-.09-2.17a4.89,4.89,0,0,1-1.66,1.81,4.49,4.49,0,0,1-2.52.69,6.66,6.66,0,0,1-2.64-.53,7,7,0,0,1-2.17-1.48,6.73,6.73,0,0,1-2-4.83,6.51,6.51,0,0,1,.52-2.59,6.44,6.44,0,0,1,1.43-2.13,6.75,6.75,0,0,1,2.12-1.44,6.58,6.58,0,0,1,2.59-.52,4.93,4.93,0,0,1,2.65.71,5.81,5.81,0,0,1,1.85,1.84Zm-4.31,11.07a3.89,3.89,0,0,0,2.2-.62,4.17,4.17,0,0,0,1.44-1.69,5.36,5.36,0,0,0,.51-2.35,5.21,5.21,0,0,0-.52-2.36,4.08,4.08,0,0,0-1.44-1.68,3.8,3.8,0,0,0-2.19-.62,4.43,4.43,0,0,0-2.3.62,4.66,4.66,0,0,0-2.26,4,4.53,4.53,0,0,0,.63,2.36,4.85,4.85,0,0,0,1.66,1.68A4.4,4.4,0,0,0,157.05,31.13Z"/><path class="cls-1" d="M170,33.13a6.3,6.3,0,0,1-2-.39,5.85,5.85,0,0,1-1.72-1,3.68,3.68,0,0,1-1.07-1.41l1.84-.79a2.24,2.24,0,0,0,.69.82,4,4,0,0,0,1.16.61,3.84,3.84,0,0,0,1.32.24,4.06,4.06,0,0,0,1.32-.22,2.45,2.45,0,0,0,1-.65,1.49,1.49,0,0,0,.39-1,1.24,1.24,0,0,0-.43-1,3.27,3.27,0,0,0-1.08-.58l-1.31-.4a14.15,14.15,0,0,1-2.36-.8,4.4,4.4,0,0,1-1.64-1.2,2.85,2.85,0,0,1-.59-1.85,3.32,3.32,0,0,1,.66-2.06,4.39,4.39,0,0,1,1.73-1.35,5.62,5.62,0,0,1,2.31-.47,6.12,6.12,0,0,1,2.84.66A4.53,4.53,0,0,1,175,22.1l-1.73,1a2.33,2.33,0,0,0-.67-.81,3.52,3.52,0,0,0-1-.56,3.63,3.63,0,0,0-1.18-.22,4,4,0,0,0-1.39.2,2.33,2.33,0,0,0-1,.66,1.58,1.58,0,0,0-.39,1.09,1.17,1.17,0,0,0,.42,1A3.17,3.17,0,0,0,169,25c.45.13.94.28,1.47.46a16.48,16.48,0,0,1,2.18.85,5.05,5.05,0,0,1,1.63,1.22,2.62,2.62,0,0,1,.61,1.81,3.19,3.19,0,0,1-.7,2.06,4.45,4.45,0,0,1-1.83,1.34A5.53,5.53,0,0,1,170,33.13Z"/><path class="cls-1" d="M181.05,33.13a6.35,6.35,0,0,1-2-.39,6,6,0,0,1-1.72-1,3.68,3.68,0,0,1-1.07-1.41l1.85-.79a2.24,2.24,0,0,0,.69.82,3.88,3.88,0,0,0,1.16.61,3.76,3.76,0,0,0,1.32.24,4.06,4.06,0,0,0,1.32-.22,2.42,2.42,0,0,0,1-.65,1.5,1.5,0,0,0,.4-1,1.27,1.27,0,0,0-.43-1,3.27,3.27,0,0,0-1.08-.58l-1.32-.4a14.47,14.47,0,0,1-2.36-.8,4.36,4.36,0,0,1-1.63-1.2,2.8,2.8,0,0,1-.6-1.85,3.32,3.32,0,0,1,.66-2.06A4.36,4.36,0,0,1,179,20.1a5.62,5.62,0,0,1,2.31-.47,6.08,6.08,0,0,1,2.83.66A4.47,4.47,0,0,1,186,22.1l-1.73,1a2.3,2.3,0,0,0-.66-.81,3.66,3.66,0,0,0-1-.56,3.73,3.73,0,0,0-1.18-.22,3.93,3.93,0,0,0-1.39.2,2.28,2.28,0,0,0-1,.66,1.58,1.58,0,0,0-.39,1.09,1.17,1.17,0,0,0,.42,1,3.08,3.08,0,0,0,1.09.53c.44.13.93.28,1.46.46a16,16,0,0,1,2.18.85,5.1,5.1,0,0,1,1.64,1.22,2.67,2.67,0,0,1,.61,1.81,3.2,3.2,0,0,1-.71,2.06,4.49,4.49,0,0,1-1.82,1.34A5.55,5.55,0,0,1,181.05,33.13Z"/><path class="cls-1" d="M198.39,20.06h2.16V32.89h-2.16l-.09-2.17a4.89,4.89,0,0,1-1.66,1.81,4.49,4.49,0,0,1-2.52.69,6.66,6.66,0,0,1-2.64-.53,7.07,7.07,0,0,1-2.18-1.48A6.86,6.86,0,0,1,187.84,29a6.7,6.7,0,0,1,1.41-7.38,6.91,6.91,0,0,1,2.13-1.44A6.55,6.55,0,0,1,194,19.7a4.93,4.93,0,0,1,2.65.71,5.81,5.81,0,0,1,1.85,1.84Zm-4.31,11.07a3.89,3.89,0,0,0,2.2-.62,4.17,4.17,0,0,0,1.44-1.69,5.64,5.64,0,0,0,0-4.71,4.08,4.08,0,0,0-1.44-1.68,3.8,3.8,0,0,0-2.19-.62,4.49,4.49,0,0,0-2.31.62,4.66,4.66,0,0,0-1.64,1.69,4.82,4.82,0,0,0,0,4.71,4.88,4.88,0,0,0,1.67,1.68A4.38,4.38,0,0,0,194.08,31.13Z"/><path class="cls-1" d="M209.76,22.22h-2.92V32.89h-2.15V22.22h-2.21V20.06h2.21V16h2.15v4h2.92Z"/><path class="cls-2" d="M4.89,23.78,5,23.55s0-.05.06-.05a.43.43,0,0,1,.15-.18L12.43,16a1.61,1.61,0,0,1,1.17-.46,1.59,1.59,0,0,1,1.15.47,1.55,1.55,0,0,1,.47,1.14,1.6,1.6,0,0,1-.48,1.16L8.66,24.45l6.08,6.13a1.66,1.66,0,0,1,.48,1.17,1.57,1.57,0,0,1-.48,1.14,1.69,1.69,0,0,1-1.16.46,1.67,1.67,0,0,1-1.15-.46L5.22,25.58a.27.27,0,0,1-.13-.16.41.41,0,0,1-.15-.25.12.12,0,0,1-.08-.12.22.22,0,0,0-.05-.14.36.36,0,0,0,0-.13V24.6l0-.15,0-.13v-.18l.08-.2c0-.09,0-.13,0-.13A0,0,0,0,0,4.89,23.78Z"/><path class="cls-2" d="M225.24,24.78a1.21,1.21,0,0,0-.13.36l-.12.23a0,0,0,0,1,0,0l-7.39,7.49a1.52,1.52,0,0,1-1.13.46,1.71,1.71,0,0,1-1.18-.46,1.57,1.57,0,0,1-.48-1.14,1.66,1.66,0,0,1,.48-1.17l6.08-6.13-6.08-6.13a1.6,1.6,0,0,1-.48-1.16,1.55,1.55,0,0,1,.47-1.14,1.59,1.59,0,0,1,1.15-.47,1.61,1.61,0,0,1,1.17.46L225,23.5a.87.87,0,0,0,.09.17.93.93,0,0,1,0,.1s0,0,0,0a0,0,0,0,1,0,0l.1.3v.18a.66.66,0,0,1,0,.13l0,.13Z"/></svg>